<mxfile host="65bd71144e">
    <diagram id="JwyBJS-rGlmND_TqnOiJ" name="Page-1">
        <mxGraphModel dx="558" dy="433" grid="1" gridSize="10" guides="1" tooltips="1" connect="1" arrows="1" fold="1" page="1" pageScale="1" pageWidth="850" pageHeight="1100" math="0" shadow="0">
            <root>
                <mxCell id="0"/>
                <mxCell id="1" parent="0"/>
                <mxCell id="36" style="edgeStyle=elbowEdgeStyle;html=1;entryX=0.5;entryY=0;entryDx=0;entryDy=0;shadow=0;rounded=1;elbow=vertical;" parent="1" source="2" target="5" edge="1">
                    <mxGeometry relative="1" as="geometry"/>
                </mxCell>
                <mxCell id="47" style="edgeStyle=elbowEdgeStyle;rounded=1;html=1;entryX=0.5;entryY=0;entryDx=0;entryDy=0;shadow=0;elbow=vertical;" parent="1" source="2" target="4" edge="1">
                    <mxGeometry relative="1" as="geometry"/>
                </mxCell>
                <mxCell id="2" value="StandardError" style="rounded=1;whiteSpace=wrap;html=1;fontFamily=Inter;fontSource=https%3A%2F%2Ffonts.googleapis.com%2Fcss%3Ffamily%3DInter;shadow=0;" parent="1" vertex="1">
                    <mxGeometry x="450" y="30" width="120" height="40" as="geometry"/>
                </mxCell>
                <mxCell id="4" value="ClientError" style="rounded=1;whiteSpace=wrap;html=1;fontFamily=Inter;fontSource=https%3A%2F%2Ffonts.googleapis.com%2Fcss%3Ffamily%3DInter;shadow=0;" parent="1" vertex="1">
                    <mxGeometry x="160" y="120" width="120" height="40" as="geometry"/>
                </mxCell>
                <mxCell id="37" style="edgeStyle=elbowEdgeStyle;html=1;entryX=0.5;entryY=0;entryDx=0;entryDy=0;shadow=0;rounded=1;elbow=vertical;" parent="1" source="5" target="14" edge="1">
                    <mxGeometry relative="1" as="geometry"/>
                </mxCell>
                <mxCell id="38" style="edgeStyle=elbowEdgeStyle;html=1;entryX=0.5;entryY=0;entryDx=0;entryDy=0;shadow=0;rounded=1;elbow=vertical;" parent="1" source="5" target="25" edge="1">
                    <mxGeometry relative="1" as="geometry"/>
                </mxCell>
                <mxCell id="39" style="edgeStyle=elbowEdgeStyle;html=1;entryX=0.5;entryY=0;entryDx=0;entryDy=0;shadow=0;rounded=1;elbow=vertical;" parent="1" source="5" target="11" edge="1">
                    <mxGeometry relative="1" as="geometry"/>
                </mxCell>
                <mxCell id="5" value="ServerError" style="rounded=1;whiteSpace=wrap;html=1;fontFamily=Inter;fontSource=https%3A%2F%2Ffonts.googleapis.com%2Fcss%3Ffamily%3DInter;shadow=0;" parent="1" vertex="1">
                    <mxGeometry x="630" y="120" width="120" height="40" as="geometry"/>
                </mxCell>
                <mxCell id="42" style="edgeStyle=elbowEdgeStyle;rounded=1;html=1;shadow=0;elbow=vertical;" parent="1" source="11" target="16" edge="1">
                    <mxGeometry relative="1" as="geometry"/>
                </mxCell>
                <mxCell id="66" value="" style="edgeStyle=elbowEdgeStyle;html=1;elbow=vertical;" parent="1" source="11" target="65" edge="1">
                    <mxGeometry relative="1" as="geometry"/>
                </mxCell>
                <mxCell id="11" value="ValidationError" style="whiteSpace=wrap;html=1;rounded=1;fontFamily=Inter;fontSource=https%3A%2F%2Ffonts.googleapis.com%2Fcss%3Ffamily%3DInter;shadow=0;" parent="1" vertex="1">
                    <mxGeometry x="400" y="200" width="120" height="40" as="geometry"/>
                </mxCell>
                <mxCell id="40" style="edgeStyle=elbowEdgeStyle;rounded=1;html=1;shadow=0;elbow=vertical;" parent="1" source="14" target="20" edge="1">
                    <mxGeometry relative="1" as="geometry"/>
                </mxCell>
                <mxCell id="41" style="edgeStyle=elbowEdgeStyle;rounded=1;html=1;entryX=0.5;entryY=0;entryDx=0;entryDy=0;shadow=0;elbow=vertical;" parent="1" source="14" target="18" edge="1">
                    <mxGeometry relative="1" as="geometry"/>
                </mxCell>
                <mxCell id="44" value="" style="edgeStyle=elbowEdgeStyle;rounded=1;html=1;shadow=0;elbow=vertical;" parent="1" source="14" target="43" edge="1">
                    <mxGeometry relative="1" as="geometry"/>
                </mxCell>
                <mxCell id="50" value="" style="edgeStyle=elbowEdgeStyle;rounded=1;html=1;shadow=0;elbow=vertical;" parent="1" source="14" target="49" edge="1">
                    <mxGeometry relative="1" as="geometry"/>
                </mxCell>
                <mxCell id="52" style="edgeStyle=elbowEdgeStyle;rounded=1;html=1;entryX=0.5;entryY=0;entryDx=0;entryDy=0;shadow=0;elbow=vertical;" parent="1" source="14" target="51" edge="1">
                    <mxGeometry relative="1" as="geometry"/>
                </mxCell>
                <mxCell id="54" value="" style="edgeStyle=elbowEdgeStyle;rounded=1;html=1;shadow=0;elbow=vertical;" parent="1" source="14" target="53" edge="1">
                    <mxGeometry relative="1" as="geometry"/>
                </mxCell>
                <mxCell id="14" value="ResponseError" style="whiteSpace=wrap;html=1;rounded=1;fontFamily=Inter;fontSource=https%3A%2F%2Ffonts.googleapis.com%2Fcss%3Ffamily%3DInter;shadow=0;" parent="1" vertex="1">
                    <mxGeometry x="630" y="200" width="120" height="40" as="geometry"/>
                </mxCell>
                <mxCell id="16" value="RequiredFieldError" style="whiteSpace=wrap;html=1;rounded=1;fontFamily=Inter;fontSource=https%3A%2F%2Ffonts.googleapis.com%2Fcss%3Ffamily%3DInter;shadow=0;" parent="1" vertex="1">
                    <mxGeometry x="320" y="280" width="120" height="40" as="geometry"/>
                </mxCell>
                <mxCell id="18" value="BadRequestError&lt;br&gt;(400)" style="whiteSpace=wrap;html=1;rounded=1;fontFamily=Inter;fontSource=https%3A%2F%2Ffonts.googleapis.com%2Fcss%3Ffamily%3DInter;shadow=0;" parent="1" vertex="1">
                    <mxGeometry x="630" y="480" width="120" height="40" as="geometry"/>
                </mxCell>
                <mxCell id="20" value="UnauthorizedError&lt;br&gt;(401)" style="whiteSpace=wrap;html=1;rounded=1;fontFamily=Inter;fontSource=https%3A%2F%2Ffonts.googleapis.com%2Fcss%3Ffamily%3DInter;shadow=0;" parent="1" vertex="1">
                    <mxGeometry x="760" y="480" width="120" height="40" as="geometry"/>
                </mxCell>
                <mxCell id="56" value="" style="edgeStyle=elbowEdgeStyle;rounded=1;html=1;shadow=0;elbow=vertical;" parent="1" source="25" target="55" edge="1">
                    <mxGeometry relative="1" as="geometry"/>
                </mxCell>
                <mxCell id="61" value="" style="edgeStyle=elbowEdgeStyle;rounded=1;html=1;shadow=0;elbow=vertical;" parent="1" source="25" target="60" edge="1">
                    <mxGeometry relative="1" as="geometry"/>
                </mxCell>
                <mxCell id="63" value="" style="edgeStyle=elbowEdgeStyle;rounded=1;html=1;shadow=0;elbow=vertical;" parent="1" source="25" target="62" edge="1">
                    <mxGeometry relative="1" as="geometry"/>
                </mxCell>
                <mxCell id="25" value="DatabaseError" style="rounded=1;whiteSpace=wrap;html=1;fontFamily=Inter;fontSource=https%3A%2F%2Ffonts.googleapis.com%2Fcss%3Ffamily%3DInter;shadow=0;" parent="1" vertex="1">
                    <mxGeometry x="1075" y="200" width="120" height="40" as="geometry"/>
                </mxCell>
                <mxCell id="43" value="InternalServerError&lt;br&gt;(500)" style="whiteSpace=wrap;html=1;rounded=1;fontFamily=Inter;fontSource=https%3A%2F%2Ffonts.googleapis.com%2Fcss%3Ffamily%3DInter;shadow=0;" parent="1" vertex="1">
                    <mxGeometry x="1340" y="480" width="120" height="40" as="geometry"/>
                </mxCell>
                <mxCell id="49" value="NotFoundError (404)" style="whiteSpace=wrap;html=1;rounded=1;fontFamily=Inter;fontSource=https%3A%2F%2Ffonts.googleapis.com%2Fcss%3Ffamily%3DInter;shadow=0;" parent="1" vertex="1">
                    <mxGeometry x="1020" y="480" width="120" height="40" as="geometry"/>
                </mxCell>
                <mxCell id="51" value="ForbiddenError (403)" style="whiteSpace=wrap;html=1;rounded=1;fontFamily=Inter;fontSource=https%3A%2F%2Ffonts.googleapis.com%2Fcss%3Ffamily%3DInter;shadow=0;" parent="1" vertex="1">
                    <mxGeometry x="890" y="480" width="120" height="40" as="geometry"/>
                </mxCell>
                <mxCell id="53" value="UnsupportedMediaTypeError&lt;br&gt;(415)" style="whiteSpace=wrap;html=1;rounded=1;fontFamily=Inter;fontSource=https%3A%2F%2Ffonts.googleapis.com%2Fcss%3Ffamily%3DInter;shadow=0;" parent="1" vertex="1">
                    <mxGeometry x="1150" y="480" width="180" height="40" as="geometry"/>
                </mxCell>
                <mxCell id="55" value="ConnectionRefusedError" style="rounded=1;whiteSpace=wrap;html=1;fontFamily=Inter;fontSource=https%3A%2F%2Ffonts.googleapis.com%2Fcss%3Ffamily%3DInter;shadow=0;" parent="1" vertex="1">
                    <mxGeometry x="890" y="280" width="170" height="40" as="geometry"/>
                </mxCell>
                <mxCell id="60" value="QueryExecutionError" style="rounded=1;whiteSpace=wrap;html=1;fontFamily=Inter;fontSource=https%3A%2F%2Ffonts.googleapis.com%2Fcss%3Ffamily%3DInter;shadow=0;" parent="1" vertex="1">
                    <mxGeometry x="1070" y="280" width="130" height="40" as="geometry"/>
                </mxCell>
                <mxCell id="62" value="MissingPoolError" style="rounded=1;whiteSpace=wrap;html=1;fontFamily=Inter;fontSource=https%3A%2F%2Ffonts.googleapis.com%2Fcss%3Ffamily%3DInter;shadow=0;" parent="1" vertex="1">
                    <mxGeometry x="1210" y="280" width="120" height="40" as="geometry"/>
                </mxCell>
                <mxCell id="65" value="MissingFieldError" style="whiteSpace=wrap;html=1;rounded=1;fontFamily=Inter;fontSource=https%3A%2F%2Ffonts.googleapis.com%2Fcss%3Ffamily%3DInter;shadow=0;" parent="1" vertex="1">
                    <mxGeometry x="480" y="280" width="120" height="40" as="geometry"/>
                </mxCell>
            </root>
        </mxGraphModel>
    </diagram>
</mxfile>